<mxfile host="app.diagrams.net" modified="2022-09-29T01:15:02.998Z" agent="5.0 (Windows NT 10.0; Win64; x64) AppleWebKit/537.36 (KHTML, like Gecko) Chrome/105.0.0.0 Safari/537.36" etag="9IxmfYLw0FynKi-y4489" version="20.3.7" type="github">
  <diagram id="QXCmKPoplqcxUp9vM0Bt" name="Page-1">
    <mxGraphModel dx="2076" dy="1146" grid="1" gridSize="10" guides="1" tooltips="1" connect="1" arrows="1" fold="1" page="1" pageScale="1" pageWidth="850" pageHeight="1100" math="0" shadow="0">
      <root>
        <mxCell id="0" />
        <mxCell id="1" parent="0" />
        <mxCell id="h2GhNfGjHwMAatRYWjIX-1" value="&lt;span style=&quot;white-space: pre;&quot;&gt;	&lt;/span&gt;&lt;span style=&quot;white-space: pre;&quot;&gt;	&lt;/span&gt;&lt;span style=&quot;white-space: pre;&quot;&gt;	&lt;/span&gt;&lt;span style=&quot;white-space: pre;&quot;&gt;	&lt;/span&gt;&lt;br&gt;" style="shape=actor;whiteSpace=wrap;html=1;" vertex="1" parent="1">
          <mxGeometry x="90" y="200" width="40" height="60" as="geometry" />
        </mxCell>
        <mxCell id="h2GhNfGjHwMAatRYWjIX-2" value="" style="endArrow=none;html=1;rounded=0;" edge="1" parent="1">
          <mxGeometry width="50" height="50" relative="1" as="geometry">
            <mxPoint x="110" y="630" as="sourcePoint" />
            <mxPoint x="110" y="270" as="targetPoint" />
          </mxGeometry>
        </mxCell>
        <mxCell id="h2GhNfGjHwMAatRYWjIX-5" value="&amp;nbsp; &amp;nbsp; &amp;nbsp; admin" style="text;html=1;align=center;verticalAlign=middle;resizable=0;points=[];autosize=1;strokeColor=none;fillColor=none;" vertex="1" parent="1">
          <mxGeometry x="60" y="250" width="80" height="30" as="geometry" />
        </mxCell>
        <mxCell id="h2GhNfGjHwMAatRYWjIX-6" value="" style="endArrow=none;html=1;rounded=0;" edge="1" parent="1">
          <mxGeometry width="50" height="50" relative="1" as="geometry">
            <mxPoint x="280" y="257" as="sourcePoint" />
            <mxPoint x="160" y="257" as="targetPoint" />
          </mxGeometry>
        </mxCell>
        <mxCell id="h2GhNfGjHwMAatRYWjIX-7" value="" style="endArrow=none;html=1;rounded=0;" edge="1" parent="1">
          <mxGeometry width="50" height="50" relative="1" as="geometry">
            <mxPoint x="110" y="450" as="sourcePoint" />
            <mxPoint x="270" y="450" as="targetPoint" />
          </mxGeometry>
        </mxCell>
        <mxCell id="h2GhNfGjHwMAatRYWjIX-8" value="" style="endArrow=none;html=1;rounded=0;" edge="1" parent="1" target="h2GhNfGjHwMAatRYWjIX-9">
          <mxGeometry width="50" height="50" relative="1" as="geometry">
            <mxPoint x="110" y="630" as="sourcePoint" />
            <mxPoint x="270" y="530" as="targetPoint" />
          </mxGeometry>
        </mxCell>
        <mxCell id="h2GhNfGjHwMAatRYWjIX-9" value="static all mentee" style="ellipse;whiteSpace=wrap;html=1;" vertex="1" parent="1">
          <mxGeometry x="290" y="600" width="120" height="60" as="geometry" />
        </mxCell>
        <mxCell id="h2GhNfGjHwMAatRYWjIX-10" value="mentor management" style="ellipse;whiteSpace=wrap;html=1;" vertex="1" parent="1">
          <mxGeometry x="280" y="410" width="120" height="70" as="geometry" />
        </mxCell>
        <mxCell id="h2GhNfGjHwMAatRYWjIX-11" value="view" style="ellipse;whiteSpace=wrap;html=1;" vertex="1" parent="1">
          <mxGeometry x="290" y="225" width="120" height="65" as="geometry" />
        </mxCell>
        <mxCell id="h2GhNfGjHwMAatRYWjIX-12" value="" style="endArrow=none;dashed=1;html=1;dashPattern=1 3;strokeWidth=2;rounded=0;exitX=1;exitY=0.5;exitDx=0;exitDy=0;entryX=0;entryY=0.75;entryDx=0;entryDy=0;" edge="1" parent="1" source="h2GhNfGjHwMAatRYWjIX-11" target="h2GhNfGjHwMAatRYWjIX-26">
          <mxGeometry width="50" height="50" relative="1" as="geometry">
            <mxPoint x="460" y="350" as="sourcePoint" />
            <mxPoint x="470" y="230" as="targetPoint" />
          </mxGeometry>
        </mxCell>
        <mxCell id="h2GhNfGjHwMAatRYWjIX-14" value="" style="endArrow=none;dashed=1;html=1;dashPattern=1 3;strokeWidth=2;rounded=0;exitX=1;exitY=0.5;exitDx=0;exitDy=0;entryX=0;entryY=0.5;entryDx=0;entryDy=0;" edge="1" parent="1" source="h2GhNfGjHwMAatRYWjIX-11" target="h2GhNfGjHwMAatRYWjIX-29">
          <mxGeometry width="50" height="50" relative="1" as="geometry">
            <mxPoint x="410" y="340" as="sourcePoint" />
            <mxPoint x="490" y="280" as="targetPoint" />
          </mxGeometry>
        </mxCell>
        <mxCell id="h2GhNfGjHwMAatRYWjIX-15" value="" style="endArrow=none;dashed=1;html=1;dashPattern=1 3;strokeWidth=2;rounded=0;entryX=0;entryY=0.5;entryDx=0;entryDy=0;" edge="1" parent="1" target="h2GhNfGjHwMAatRYWjIX-28">
          <mxGeometry width="50" height="50" relative="1" as="geometry">
            <mxPoint x="410" y="257" as="sourcePoint" />
            <mxPoint x="460" y="250.86363636363637" as="targetPoint" />
          </mxGeometry>
        </mxCell>
        <mxCell id="h2GhNfGjHwMAatRYWjIX-18" value="" style="endArrow=none;dashed=1;html=1;dashPattern=1 3;strokeWidth=2;rounded=0;exitX=1;exitY=0.5;exitDx=0;exitDy=0;entryX=0;entryY=0.5;entryDx=0;entryDy=0;" edge="1" parent="1" source="h2GhNfGjHwMAatRYWjIX-10" target="h2GhNfGjHwMAatRYWjIX-35">
          <mxGeometry width="50" height="50" relative="1" as="geometry">
            <mxPoint x="460" y="460" as="sourcePoint" />
            <mxPoint x="500" y="370" as="targetPoint" />
          </mxGeometry>
        </mxCell>
        <mxCell id="h2GhNfGjHwMAatRYWjIX-19" value="" style="endArrow=none;dashed=1;html=1;dashPattern=1 3;strokeWidth=2;rounded=0;exitX=1;exitY=0.5;exitDx=0;exitDy=0;entryX=0;entryY=0.5;entryDx=0;entryDy=0;" edge="1" parent="1" source="h2GhNfGjHwMAatRYWjIX-10" target="h2GhNfGjHwMAatRYWjIX-36">
          <mxGeometry width="50" height="50" relative="1" as="geometry">
            <mxPoint x="410" y="455" as="sourcePoint" />
            <mxPoint x="520" y="440" as="targetPoint" />
          </mxGeometry>
        </mxCell>
        <mxCell id="h2GhNfGjHwMAatRYWjIX-20" value="" style="endArrow=none;dashed=1;html=1;dashPattern=1 3;strokeWidth=2;rounded=0;exitX=1;exitY=0.5;exitDx=0;exitDy=0;entryX=0;entryY=0.5;entryDx=0;entryDy=0;" edge="1" parent="1" source="h2GhNfGjHwMAatRYWjIX-10" target="h2GhNfGjHwMAatRYWjIX-34">
          <mxGeometry width="50" height="50" relative="1" as="geometry">
            <mxPoint x="410" y="455" as="sourcePoint" />
            <mxPoint x="470" y="360" as="targetPoint" />
          </mxGeometry>
        </mxCell>
        <mxCell id="h2GhNfGjHwMAatRYWjIX-21" value="" style="endArrow=none;dashed=1;html=1;dashPattern=1 3;strokeWidth=2;rounded=0;entryX=0;entryY=0.5;entryDx=0;entryDy=0;" edge="1" parent="1" target="h2GhNfGjHwMAatRYWjIX-38">
          <mxGeometry width="50" height="50" relative="1" as="geometry">
            <mxPoint x="400" y="450" as="sourcePoint" />
            <mxPoint x="490" y="550" as="targetPoint" />
          </mxGeometry>
        </mxCell>
        <mxCell id="h2GhNfGjHwMAatRYWjIX-22" value="" style="endArrow=none;dashed=1;html=1;dashPattern=1 3;strokeWidth=2;rounded=0;entryX=0;entryY=0.75;entryDx=0;entryDy=0;" edge="1" parent="1" target="h2GhNfGjHwMAatRYWjIX-39">
          <mxGeometry width="50" height="50" relative="1" as="geometry">
            <mxPoint x="410" y="460" as="sourcePoint" />
            <mxPoint x="470" y="610" as="targetPoint" />
          </mxGeometry>
        </mxCell>
        <mxCell id="h2GhNfGjHwMAatRYWjIX-24" value="" style="endArrow=none;dashed=1;html=1;dashPattern=1 3;strokeWidth=2;rounded=0;exitX=0;exitY=0.5;exitDx=0;exitDy=0;" edge="1" parent="1" source="h2GhNfGjHwMAatRYWjIX-37">
          <mxGeometry width="50" height="50" relative="1" as="geometry">
            <mxPoint x="550" y="510" as="sourcePoint" />
            <mxPoint x="400" y="450" as="targetPoint" />
          </mxGeometry>
        </mxCell>
        <mxCell id="h2GhNfGjHwMAatRYWjIX-26" value="mentor" style="rounded=0;whiteSpace=wrap;html=1;" vertex="1" parent="1">
          <mxGeometry x="580" y="90" width="120" height="40" as="geometry" />
        </mxCell>
        <mxCell id="h2GhNfGjHwMAatRYWjIX-28" value="mentee" style="rounded=0;whiteSpace=wrap;html=1;" vertex="1" parent="1">
          <mxGeometry x="580" y="170" width="120" height="40" as="geometry" />
        </mxCell>
        <mxCell id="h2GhNfGjHwMAatRYWjIX-29" value="request" style="rounded=0;whiteSpace=wrap;html=1;" vertex="1" parent="1">
          <mxGeometry x="580" y="240" width="120" height="40" as="geometry" />
        </mxCell>
        <mxCell id="h2GhNfGjHwMAatRYWjIX-30" value="list" style="rounded=0;whiteSpace=wrap;html=1;" vertex="1" parent="1">
          <mxGeometry x="580" y="320" width="120" height="40" as="geometry" />
        </mxCell>
        <mxCell id="h2GhNfGjHwMAatRYWjIX-31" value="filter" style="rounded=0;whiteSpace=wrap;html=1;" vertex="1" parent="1">
          <mxGeometry x="580" y="370" width="120" height="40" as="geometry" />
        </mxCell>
        <mxCell id="h2GhNfGjHwMAatRYWjIX-32" value="search" style="rounded=0;whiteSpace=wrap;html=1;" vertex="1" parent="1">
          <mxGeometry x="580" y="420" width="120" height="40" as="geometry" />
        </mxCell>
        <mxCell id="h2GhNfGjHwMAatRYWjIX-33" value="show" style="rounded=0;whiteSpace=wrap;html=1;" vertex="1" parent="1">
          <mxGeometry x="580" y="470" width="120" height="40" as="geometry" />
        </mxCell>
        <mxCell id="h2GhNfGjHwMAatRYWjIX-34" value="hide" style="rounded=0;whiteSpace=wrap;html=1;" vertex="1" parent="1">
          <mxGeometry x="580" y="520" width="120" height="40" as="geometry" />
        </mxCell>
        <mxCell id="h2GhNfGjHwMAatRYWjIX-35" value="view" style="rounded=0;whiteSpace=wrap;html=1;" vertex="1" parent="1">
          <mxGeometry x="580" y="570" width="120" height="40" as="geometry" />
        </mxCell>
        <mxCell id="h2GhNfGjHwMAatRYWjIX-36" value="add new" style="rounded=0;whiteSpace=wrap;html=1;" vertex="1" parent="1">
          <mxGeometry x="580" y="620" width="120" height="40" as="geometry" />
        </mxCell>
        <mxCell id="h2GhNfGjHwMAatRYWjIX-37" value="edit existing mentor" style="rounded=0;whiteSpace=wrap;html=1;" vertex="1" parent="1">
          <mxGeometry x="580" y="670" width="120" height="40" as="geometry" />
        </mxCell>
        <mxCell id="h2GhNfGjHwMAatRYWjIX-38" value="create skill" style="rounded=0;whiteSpace=wrap;html=1;" vertex="1" parent="1">
          <mxGeometry x="580" y="720" width="120" height="40" as="geometry" />
        </mxCell>
        <mxCell id="h2GhNfGjHwMAatRYWjIX-39" value="update skill" style="rounded=0;whiteSpace=wrap;html=1;" vertex="1" parent="1">
          <mxGeometry x="580" y="770" width="120" height="40" as="geometry" />
        </mxCell>
        <mxCell id="h2GhNfGjHwMAatRYWjIX-40" value="" style="endArrow=none;dashed=1;html=1;dashPattern=1 3;strokeWidth=2;rounded=0;entryX=0;entryY=0.5;entryDx=0;entryDy=0;" edge="1" parent="1" target="h2GhNfGjHwMAatRYWjIX-33">
          <mxGeometry width="50" height="50" relative="1" as="geometry">
            <mxPoint x="400" y="450" as="sourcePoint" />
            <mxPoint x="590" y="550" as="targetPoint" />
          </mxGeometry>
        </mxCell>
        <mxCell id="h2GhNfGjHwMAatRYWjIX-41" value="" style="endArrow=none;dashed=1;html=1;dashPattern=1 3;strokeWidth=2;rounded=0;exitX=1;exitY=0.5;exitDx=0;exitDy=0;entryX=0;entryY=0.5;entryDx=0;entryDy=0;" edge="1" parent="1" source="h2GhNfGjHwMAatRYWjIX-10" target="h2GhNfGjHwMAatRYWjIX-32">
          <mxGeometry width="50" height="50" relative="1" as="geometry">
            <mxPoint x="420" y="465" as="sourcePoint" />
            <mxPoint x="600" y="560" as="targetPoint" />
          </mxGeometry>
        </mxCell>
        <mxCell id="h2GhNfGjHwMAatRYWjIX-42" value="" style="endArrow=none;dashed=1;html=1;dashPattern=1 3;strokeWidth=2;rounded=0;entryX=0;entryY=0.5;entryDx=0;entryDy=0;" edge="1" parent="1" target="h2GhNfGjHwMAatRYWjIX-31">
          <mxGeometry width="50" height="50" relative="1" as="geometry">
            <mxPoint x="400" y="450" as="sourcePoint" />
            <mxPoint x="590" y="450" as="targetPoint" />
          </mxGeometry>
        </mxCell>
        <mxCell id="h2GhNfGjHwMAatRYWjIX-43" value="" style="endArrow=none;dashed=1;html=1;dashPattern=1 3;strokeWidth=2;rounded=0;entryX=0;entryY=0.5;entryDx=0;entryDy=0;" edge="1" parent="1" target="h2GhNfGjHwMAatRYWjIX-30">
          <mxGeometry width="50" height="50" relative="1" as="geometry">
            <mxPoint x="400" y="440" as="sourcePoint" />
            <mxPoint x="600" y="460" as="targetPoint" />
          </mxGeometry>
        </mxCell>
        <mxCell id="h2GhNfGjHwMAatRYWjIX-46" value="" style="endArrow=none;html=1;rounded=0;" edge="1" parent="1">
          <mxGeometry width="50" height="50" relative="1" as="geometry">
            <mxPoint x="720" y="850" as="sourcePoint" />
            <mxPoint x="720" y="40" as="targetPoint" />
          </mxGeometry>
        </mxCell>
        <mxCell id="h2GhNfGjHwMAatRYWjIX-47" value="" style="endArrow=none;html=1;rounded=0;" edge="1" parent="1">
          <mxGeometry width="50" height="50" relative="1" as="geometry">
            <mxPoint x="220" y="850" as="sourcePoint" />
            <mxPoint x="720" y="850" as="targetPoint" />
          </mxGeometry>
        </mxCell>
        <mxCell id="h2GhNfGjHwMAatRYWjIX-48" value="" style="endArrow=none;html=1;rounded=0;" edge="1" parent="1">
          <mxGeometry width="50" height="50" relative="1" as="geometry">
            <mxPoint x="220" y="40" as="sourcePoint" />
            <mxPoint x="720" y="40" as="targetPoint" />
          </mxGeometry>
        </mxCell>
        <mxCell id="h2GhNfGjHwMAatRYWjIX-49" value="" style="endArrow=none;html=1;rounded=0;" edge="1" parent="1">
          <mxGeometry width="50" height="50" relative="1" as="geometry">
            <mxPoint x="220" y="845" as="sourcePoint" />
            <mxPoint x="220" y="35" as="targetPoint" />
            <Array as="points">
              <mxPoint x="220" y="420" />
            </Array>
          </mxGeometry>
        </mxCell>
        <mxCell id="h2GhNfGjHwMAatRYWjIX-50" value="&lt;span style=&quot;white-space: pre;&quot;&gt;	&lt;/span&gt;&lt;span style=&quot;white-space: pre;&quot;&gt;	&lt;/span&gt;&lt;span style=&quot;white-space: pre;&quot;&gt;	&lt;/span&gt;&lt;span style=&quot;white-space: pre;&quot;&gt;	&lt;/span&gt;&lt;br&gt;" style="shape=actor;whiteSpace=wrap;html=1;" vertex="1" parent="1">
          <mxGeometry x="100" y="1270" width="40" height="60" as="geometry" />
        </mxCell>
        <mxCell id="h2GhNfGjHwMAatRYWjIX-51" value="&amp;nbsp; &amp;nbsp; &amp;nbsp; User" style="text;html=1;align=center;verticalAlign=middle;resizable=0;points=[];autosize=1;strokeColor=none;fillColor=none;" vertex="1" parent="1">
          <mxGeometry x="75" y="1335" width="70" height="30" as="geometry" />
        </mxCell>
        <mxCell id="h2GhNfGjHwMAatRYWjIX-52" value="" style="endArrow=none;html=1;rounded=0;" edge="1" parent="1">
          <mxGeometry width="50" height="50" relative="1" as="geometry">
            <mxPoint x="160" y="1320" as="sourcePoint" />
            <mxPoint x="349.99999999999636" y="1320" as="targetPoint" />
          </mxGeometry>
        </mxCell>
        <mxCell id="h2GhNfGjHwMAatRYWjIX-54" value="Sign in" style="ellipse;whiteSpace=wrap;html=1;" vertex="1" parent="1">
          <mxGeometry x="350" y="1290" width="120" height="60" as="geometry" />
        </mxCell>
        <mxCell id="h2GhNfGjHwMAatRYWjIX-55" value="request" style="ellipse;whiteSpace=wrap;html=1;" vertex="1" parent="1">
          <mxGeometry x="350" y="1430" width="120" height="70" as="geometry" />
        </mxCell>
        <mxCell id="h2GhNfGjHwMAatRYWjIX-56" value="invitation" style="ellipse;whiteSpace=wrap;html=1;" vertex="1" parent="1">
          <mxGeometry x="350" y="1580" width="120" height="70" as="geometry" />
        </mxCell>
        <mxCell id="h2GhNfGjHwMAatRYWjIX-57" value="" style="endArrow=none;html=1;rounded=0;" edge="1" parent="1">
          <mxGeometry width="50" height="50" relative="1" as="geometry">
            <mxPoint x="120" y="1650" as="sourcePoint" />
            <mxPoint x="120" y="1370" as="targetPoint" />
          </mxGeometry>
        </mxCell>
        <mxCell id="h2GhNfGjHwMAatRYWjIX-58" value="" style="endArrow=none;html=1;rounded=0;" edge="1" parent="1">
          <mxGeometry width="50" height="50" relative="1" as="geometry">
            <mxPoint x="120" y="1465" as="sourcePoint" />
            <mxPoint x="349.99999999999636" y="1464.66" as="targetPoint" />
          </mxGeometry>
        </mxCell>
        <mxCell id="h2GhNfGjHwMAatRYWjIX-59" value="" style="endArrow=none;html=1;rounded=0;" edge="1" parent="1">
          <mxGeometry width="50" height="50" relative="1" as="geometry">
            <mxPoint x="120" y="1620" as="sourcePoint" />
            <mxPoint x="349.99999999999636" y="1620" as="targetPoint" />
          </mxGeometry>
        </mxCell>
        <mxCell id="h2GhNfGjHwMAatRYWjIX-61" value="reset password" style="rounded=0;whiteSpace=wrap;html=1;" vertex="1" parent="1">
          <mxGeometry x="550" y="1270" width="120" height="30" as="geometry" />
        </mxCell>
        <mxCell id="h2GhNfGjHwMAatRYWjIX-62" value="change password" style="rounded=0;whiteSpace=wrap;html=1;" vertex="1" parent="1">
          <mxGeometry x="550" y="1320" width="120" height="30" as="geometry" />
        </mxCell>
        <mxCell id="h2GhNfGjHwMAatRYWjIX-64" value="static&amp;nbsp;" style="rounded=0;whiteSpace=wrap;html=1;" vertex="1" parent="1">
          <mxGeometry x="550" y="1380" width="120" height="30" as="geometry" />
        </mxCell>
        <mxCell id="h2GhNfGjHwMAatRYWjIX-65" value="list" style="rounded=0;whiteSpace=wrap;html=1;fontStyle=1" vertex="1" parent="1">
          <mxGeometry x="550" y="1420" width="120" height="30" as="geometry" />
        </mxCell>
        <mxCell id="h2GhNfGjHwMAatRYWjIX-66" value="update" style="rounded=0;whiteSpace=wrap;html=1;" vertex="1" parent="1">
          <mxGeometry x="550" y="1460" width="120" height="30" as="geometry" />
        </mxCell>
        <mxCell id="h2GhNfGjHwMAatRYWjIX-67" value="response" style="rounded=0;whiteSpace=wrap;html=1;" vertex="1" parent="1">
          <mxGeometry x="550" y="1500" width="120" height="30" as="geometry" />
        </mxCell>
        <mxCell id="h2GhNfGjHwMAatRYWjIX-68" value="static&amp;nbsp;" style="rounded=0;whiteSpace=wrap;html=1;" vertex="1" parent="1">
          <mxGeometry x="550" y="1570" width="120" height="30" as="geometry" />
        </mxCell>
        <mxCell id="h2GhNfGjHwMAatRYWjIX-69" value="list" style="rounded=0;whiteSpace=wrap;html=1;" vertex="1" parent="1">
          <mxGeometry x="550" y="1610" width="120" height="30" as="geometry" />
        </mxCell>
        <mxCell id="h2GhNfGjHwMAatRYWjIX-70" value="response" style="rounded=0;whiteSpace=wrap;html=1;" vertex="1" parent="1">
          <mxGeometry x="550" y="1650" width="120" height="30" as="geometry" />
        </mxCell>
        <mxCell id="h2GhNfGjHwMAatRYWjIX-72" value="" style="endArrow=none;dashed=1;html=1;dashPattern=1 3;strokeWidth=2;rounded=0;entryX=0;entryY=0.5;entryDx=0;entryDy=0;exitX=1;exitY=0.5;exitDx=0;exitDy=0;" edge="1" parent="1" source="h2GhNfGjHwMAatRYWjIX-56" target="h2GhNfGjHwMAatRYWjIX-70">
          <mxGeometry width="50" height="50" relative="1" as="geometry">
            <mxPoint x="390" y="1610" as="sourcePoint" />
            <mxPoint x="440" y="1560" as="targetPoint" />
          </mxGeometry>
        </mxCell>
        <mxCell id="h2GhNfGjHwMAatRYWjIX-73" value="" style="endArrow=none;dashed=1;html=1;dashPattern=1 3;strokeWidth=2;rounded=0;entryX=0;entryY=0.5;entryDx=0;entryDy=0;" edge="1" parent="1" target="h2GhNfGjHwMAatRYWjIX-69">
          <mxGeometry width="50" height="50" relative="1" as="geometry">
            <mxPoint x="470" y="1620" as="sourcePoint" />
            <mxPoint x="560" y="1675" as="targetPoint" />
          </mxGeometry>
        </mxCell>
        <mxCell id="h2GhNfGjHwMAatRYWjIX-74" value="" style="endArrow=none;dashed=1;html=1;dashPattern=1 3;strokeWidth=2;rounded=0;entryX=0;entryY=0.5;entryDx=0;entryDy=0;" edge="1" parent="1" target="h2GhNfGjHwMAatRYWjIX-68">
          <mxGeometry width="50" height="50" relative="1" as="geometry">
            <mxPoint x="470" y="1620" as="sourcePoint" />
            <mxPoint x="570" y="1685" as="targetPoint" />
          </mxGeometry>
        </mxCell>
        <mxCell id="h2GhNfGjHwMAatRYWjIX-75" value="" style="endArrow=none;dashed=1;html=1;dashPattern=1 3;strokeWidth=2;rounded=0;entryX=0;entryY=0.5;entryDx=0;entryDy=0;exitX=1.016;exitY=0.569;exitDx=0;exitDy=0;exitPerimeter=0;" edge="1" parent="1" source="h2GhNfGjHwMAatRYWjIX-55" target="h2GhNfGjHwMAatRYWjIX-67">
          <mxGeometry width="50" height="50" relative="1" as="geometry">
            <mxPoint x="480" y="1630" as="sourcePoint" />
            <mxPoint x="560" y="1635" as="targetPoint" />
          </mxGeometry>
        </mxCell>
        <mxCell id="h2GhNfGjHwMAatRYWjIX-76" value="" style="endArrow=none;dashed=1;html=1;dashPattern=1 3;strokeWidth=2;rounded=0;entryX=0;entryY=0.5;entryDx=0;entryDy=0;" edge="1" parent="1" target="h2GhNfGjHwMAatRYWjIX-66">
          <mxGeometry width="50" height="50" relative="1" as="geometry">
            <mxPoint x="470" y="1470" as="sourcePoint" />
            <mxPoint x="560" y="1525" as="targetPoint" />
          </mxGeometry>
        </mxCell>
        <mxCell id="h2GhNfGjHwMAatRYWjIX-77" value="" style="endArrow=none;dashed=1;html=1;dashPattern=1 3;strokeWidth=2;rounded=0;entryX=0;entryY=0.5;entryDx=0;entryDy=0;exitX=1;exitY=0.5;exitDx=0;exitDy=0;" edge="1" parent="1" source="h2GhNfGjHwMAatRYWjIX-55" target="h2GhNfGjHwMAatRYWjIX-65">
          <mxGeometry width="50" height="50" relative="1" as="geometry">
            <mxPoint x="491.9200000000001" y="1489.83" as="sourcePoint" />
            <mxPoint x="570" y="1535" as="targetPoint" />
          </mxGeometry>
        </mxCell>
        <mxCell id="h2GhNfGjHwMAatRYWjIX-78" value="" style="endArrow=none;dashed=1;html=1;dashPattern=1 3;strokeWidth=2;rounded=0;entryX=0;entryY=0.5;entryDx=0;entryDy=0;exitX=1;exitY=0.5;exitDx=0;exitDy=0;" edge="1" parent="1" source="h2GhNfGjHwMAatRYWjIX-55" target="h2GhNfGjHwMAatRYWjIX-64">
          <mxGeometry width="50" height="50" relative="1" as="geometry">
            <mxPoint x="501.9200000000001" y="1499.83" as="sourcePoint" />
            <mxPoint x="580" y="1545" as="targetPoint" />
          </mxGeometry>
        </mxCell>
        <mxCell id="h2GhNfGjHwMAatRYWjIX-79" value="" style="endArrow=none;dashed=1;html=1;dashPattern=1 3;strokeWidth=2;rounded=0;entryX=0;entryY=0.5;entryDx=0;entryDy=0;exitX=1;exitY=0.5;exitDx=0;exitDy=0;" edge="1" parent="1" source="h2GhNfGjHwMAatRYWjIX-54" target="h2GhNfGjHwMAatRYWjIX-62">
          <mxGeometry width="50" height="50" relative="1" as="geometry">
            <mxPoint x="479.9999999999977" y="1475" as="sourcePoint" />
            <mxPoint x="560" y="1405" as="targetPoint" />
          </mxGeometry>
        </mxCell>
        <mxCell id="h2GhNfGjHwMAatRYWjIX-80" value="" style="endArrow=none;dashed=1;html=1;dashPattern=1 3;strokeWidth=2;rounded=0;entryX=0;entryY=0.5;entryDx=0;entryDy=0;exitX=1;exitY=0.5;exitDx=0;exitDy=0;" edge="1" parent="1" source="h2GhNfGjHwMAatRYWjIX-54" target="h2GhNfGjHwMAatRYWjIX-61">
          <mxGeometry width="50" height="50" relative="1" as="geometry">
            <mxPoint x="480" y="1330" as="sourcePoint" />
            <mxPoint x="560" y="1345" as="targetPoint" />
          </mxGeometry>
        </mxCell>
        <mxCell id="h2GhNfGjHwMAatRYWjIX-81" value="" style="endArrow=none;html=1;rounded=0;" edge="1" parent="1">
          <mxGeometry width="50" height="50" relative="1" as="geometry">
            <mxPoint x="680" y="1240" as="sourcePoint" />
            <mxPoint x="280" y="1240" as="targetPoint" />
          </mxGeometry>
        </mxCell>
        <mxCell id="h2GhNfGjHwMAatRYWjIX-82" value="" style="endArrow=none;html=1;rounded=0;" edge="1" parent="1">
          <mxGeometry width="50" height="50" relative="1" as="geometry">
            <mxPoint x="690" y="1710" as="sourcePoint" />
            <mxPoint x="690" y="1240" as="targetPoint" />
          </mxGeometry>
        </mxCell>
        <mxCell id="h2GhNfGjHwMAatRYWjIX-83" value="" style="endArrow=none;html=1;rounded=0;" edge="1" parent="1">
          <mxGeometry width="50" height="50" relative="1" as="geometry">
            <mxPoint x="690" y="1710" as="sourcePoint" />
            <mxPoint x="280" y="1710" as="targetPoint" />
          </mxGeometry>
        </mxCell>
        <mxCell id="h2GhNfGjHwMAatRYWjIX-84" value="" style="endArrow=none;html=1;rounded=0;" edge="1" parent="1">
          <mxGeometry width="50" height="50" relative="1" as="geometry">
            <mxPoint x="280" y="1710" as="sourcePoint" />
            <mxPoint x="280" y="1240" as="targetPoint" />
          </mxGeometry>
        </mxCell>
      </root>
    </mxGraphModel>
  </diagram>
</mxfile>
